nColumns=28
nRows=33
DataType=double
version=3
OpenSimVersion=4.1
endheader
time	ground_force_1_vx	ground_force_1_vy	ground_force_1_vz	ground_force_1_px	ground_force_1_py	ground_force_1_pz	ground_force_1_mx	ground_force_1_my	ground_force_1_mz	ground_force_2_vx	ground_force_2_vy	ground_force_2_vz	ground_force_2_px	ground_force_2_py	ground_force_2_pz	ground_force_2_mx	ground_force_2_my	ground_force_2_mz	ground_force_3_vx	ground_force_3_vy	ground_force_3_vz	ground_force_3_px	ground_force_3_py	ground_force_3_pz	ground_force_3_mx	ground_force_3_my	ground_force_3_mz
10.03	4.24656	323.034	-36.4788	-0.26543	0.006	-0.419913	0	-0.315311	0	-8.64154	191.946	35.3189	-0.159369	0.006	-0.778159	0	0.339609	0	0	0	0	0	0	0	0	0	0
10.04	3.77356	320.257	-36.5349	-0.26426	0.006	-0.419487	0	-0.285133	0	-8.66342	185.145	34.2875	-0.156958	0.006	-0.777958	0	0.349161	0	0	0	0	0	0	0	0	0	0
10.05	3.31703	317.494	-36.5481	-0.263054	0.006	-0.419054	0	-0.246709	0	-8.68612	178.501	33.2947	-0.154496	0.006	-0.777753	0	0.356497	0	0	0	0	0	0	0	0	0	0
10.06	2.89314	314.794	-36.5167	-0.26182	0.006	-0.418619	0	-0.201317	0	-8.71297	172.117	32.352	-0.151988	0.006	-0.777555	0	0.361126	0	0	0	0	0	0	0	0	0	0
10.07	2.51528	312.197	-36.4406	-0.260562	0.006	-0.418184	0	-0.150607	0	-8.74554	166.098	31.4678	-0.149446	0.006	-0.777373	0	0.362989	0	0	0	0	0	0	0	0	0	0
10.08	2.18871	309.735	-36.3212	-0.259277	0.006	-0.417751	0	-0.096373	0	-8.78499	160.543	30.6488	-0.146888	0.006	-0.777214	0	0.362287	0	0	0	0	0	0	0	0	0	0
10.09	1.90945	307.426	-36.1622	-0.257959	0.006	-0.417318	0	-0.040337	0	-8.83352	155.547	29.9016	-0.144338	0.006	-0.777085	0	0.359376	0	0	0	0	0	0	0	0	0	0
10.1	1.66743	305.284	-35.9683	-0.256598	0.006	-0.416884	0	0.015982	0	-8.89467	151.195	29.2335	-0.141826	0.006	-0.776993	0	0.354652	0	0	0	0	0	0	0	0	0	0
10.11	1.4524	303.317	-35.7434	-0.25519	0.006	-0.416443	0	0.071295	0	-8.97256	147.557	28.6524	-0.139388	0.006	-0.776945	0	0.34848	0	0	0	0	0	0	0	0	0	0
10.12	1.26002	301.532	-35.4903	-0.253733	0.006	-0.415996	0	0.124501	0	-9.07085	144.684	28.1664	-0.137062	0.006	-0.776947	0	0.341114	0	0	0	0	0	0	0	0	0	0
10.13	1.09567	299.951	-35.211	-0.252235	0.006	-0.41554	0	0.17465	0	-9.1928	142.613	27.7839	-0.134888	0.006	-0.777004	0	0.332684	0	0	0	0	0	0	0	0	0	0
10.14	0.974937	298.605	-34.9075	-0.250714	0.006	-0.415079	0	0.220752	0	-9.34123	141.368	27.5123	-0.132903	0.006	-0.77712	0	0.323441	0	0	0	0	0	0	0	0	0	0
10.15	0.921351	297.536	-34.5843	-0.249187	0.006	-0.414614	0	0.261623	0	-9.51818	140.96	27.3573	-0.131132	0.006	-0.777297	0	0.313803	0	0	0	0	0	0	0	0	0	0
10.16	0.959527	296.797	-34.2497	-0.247676	0.006	-0.414151	0	0.295893	0	-9.72499	141.387	27.3217	-0.12959	0.006	-0.777537	0	0.304339	0	0	0	0	0	0	0	0	0	0
10.17	1.10544	296.446	-33.9152	-0.246193	0.006	-0.413693	0	0.322091	0	-9.96204	142.635	27.4067	-0.12828	0.006	-0.777837	0	0.295941	0	0	0	0	0	0	0	0	0	0
10.18	1.36168	296.546	-33.5942	-0.244748	0.006	-0.413245	0	0.338721	0	-10.2286	144.681	27.6114	-0.127195	0.006	-0.778197	0	0.289683	0	0	0	0	0	0	0	0	0	0
10.19	1.71939	297.153	-33.3031	-0.243345	0.006	-0.412809	0	0.344357	0	-10.5232	147.482	27.935	-0.126317	0.006	-0.778612	0	0.286521	0	0	0	0	0	0	0	0	0	0
10.2	2.16363	298.324	-33.0588	-0.241988	0.006	-0.412387	0	0.337832	0	-10.8452	150.983	28.3767	-0.125626	0.006	-0.779076	0	0.286915	0	0	0	0	0	0	0	0	0	0
10.21	2.67881	300.102	-32.8775	-0.240681	0.006	-0.411979	0	0.318285	0	-11.1936	155.115	28.9375	-0.125097	0.006	-0.779581	0	0.290605	0	0	0	0	0	0	0	0	0	0
10.22	3.25141	302.512	-32.7747	-0.239428	0.006	-0.411582	0	0.285075	0	-11.5663	159.791	29.6181	-0.124704	0.006	-0.78012	0	0.296764	0	0	0	0	0	0	0	0	0	0
10.23	3.87081	305.554	-32.7661	-0.238232	0.006	-0.411191	0	0.237884	0	-11.9588	164.911	30.4171	-0.124421	0.006	-0.780682	0	0.304227	0	0	0	0	0	0	0	0	0	0
10.24	4.52781	309.19	-32.8674	-0.237095	0.006	-0.410799	0	0.176907	0	-12.3651	170.366	31.3287	-0.124222	0.006	-0.781261	0	0.311802	0	0	0	0	0	0	0	0	0	0
10.25	5.21216	313.348	-33.0941	-0.236011	0.006	-0.410398	0	0.10313	0	-12.777	176.038	32.3406	-0.124084	0.006	-0.781847	0	0.318566	0	0	0	0	0	0	0	0	0	0
10.26	5.90956	317.922	-33.4579	-0.234971	0.006	-0.409981	0	0.018375	0	-13.184	181.805	33.4338	-0.123987	0.006	-0.78243	0	0.324083	0	0	0	0	0	0	0	0	0	0
10.27	6.60039	322.789	-33.9632	-0.233958	0.006	-0.409544	0	-0.074804	0	-13.5755	187.54	34.5829	-0.123914	0.006	-0.782999	0	0.328286	0	0	0	0	0	0	0	0	0	0
10.28	7.26025	327.819	-34.605	-0.232953	0.006	-0.409085	0	-0.173485	0	-13.9413	193.122	35.7584	-0.12385	0.006	-0.783541	0	0.331285	0	0	0	0	0	0	0	0	0	0
10.29	7.86245	332.888	-35.3668	-0.231932	0.006	-0.408605	0	-0.27468	0	-14.2729	198.433	36.9286	-0.12378	0.006	-0.784047	0	0.333418	0	0	0	0	0	0	0	0	0	0
10.3	8.3805	337.888	-36.2217	-0.230871	0.006	-0.408108	0	-0.375533	0	-14.5641	203.365	38.0616	-0.123695	0.006	-0.784508	0	0.33512	0	0	0	0	0	0	0	0	0	0
10.31	8.78939	342.732	-37.1353	-0.229752	0.006	-0.4076	0	-0.473393	0	-14.8113	207.824	39.1277	-0.123586	0.006	-0.784917	0	0.336769	0	0	0	0	0	0	0	0	0	0
10.32	9.06807	347.36	-38.0701	-0.228558	0.006	-0.407087	0	-0.565911	0	-15.0137	211.735	40.1006	-0.123449	0.006	-0.785269	0	0.338718	0	0	0	0	0	0	0	0	0	0
10.33	9.20351	351.739	-38.9908	-0.227282	0.006	-0.406579	0	-0.651166	0	-15.1737	215.046	40.9595	-0.123283	0.006	-0.785562	0	0.341292	0	0	0	0	0	0	0	0	0	0
10.34	9.19259	355.856	-39.8697	-0.225923	0.006	-0.40608	0	-0.727633	0	-15.2956	217.731	41.6908	-0.123087	0.006	-0.785798	0	0.344671	0	0	0	0	0	0	0	0	0	0
10.35	9.04152	359.711	-40.6888	-0.224485	0.006	-0.405595	0	-0.79417	0	-15.3854	219.788	42.2879	-0.122861	0.006	-0.785977	0	0.348829	0	0	0	0	0	0	0	0	0	0
